<?xml version="1.0" encoding="utf-8"?>
<!-- Generator: Adobe Illustrator 19.2.1, SVG Export Plug-In . SVG Version: 6.00 Build 0)  -->
<svg version="1.1" id="Layer_1" xmlns="http://www.w3.org/2000/svg" xmlns:xlink="http://www.w3.org/1999/xlink" x="0px" y="0px"
	 viewBox="0 0 90 20" style="enable-background:new 0 0 90 20;" xml:space="preserve">
<style type="text/css">
	.st0{fill:#FFFFFF;}
</style>
<g>
	<path class="st0" d="M67.3,2.9c0,4-1.9,7.3-4.7,8.5l0,0v6.3h-4.5v-6.3l0,0c-2.7-1.2-4.7-4.6-4.7-8.6v-2H58l0,0v3.6c0,1.6,1,3,2.3,3
		c1.2,0,2.3-1.3,2.3-3V0.9h4.7C67.3,0.9,67.3,2.9,67.3,2.9z"/>
	<path class="st0" d="M14.6,8.3c0-4.6,2.8-8.3,6.3-8.3s6.3,3.7,6.3,8.2c0,4.6-2.8,8.3-6.3,8.3S14.6,12.8,14.6,8.3 M20,12.6
		c1.5,0,2.6-1.5,2.6-3.3s-1.2-3.2-2.7-3.2s-2.6,1.5-2.6,3.3C17.4,11.2,18.6,12.6,20,12.6"/>
	<path class="st0" d="M79.3,14.2c0.8,0.7,2.7,2.1,4.5,2.5c2.5,0.4,5.8-0.9,6.1-3.3c0.9-5.8-5.7-5.4-5.2-8.5c0,0,0.2-1.7,2-1.3
		C88.1,3.7,90,5.3,90,5.3V1.2c-0.5-0.3-1.4-0.7-3-1c-2.8-0.5-6.7,0.3-7.2,3.3c-0.7,4.3,4.9,4.5,4.5,7.1c0,0-0.2,1.6-2.1,1.3
		c-1.3-0.2-2.8-1.4-2.8-1.4L79.3,14.2z"/>
	<path class="st0" d="M5.9,13.2v4.6H1.4V6H0V1.1h0.4h1.4c4.1,0,12.2,0.3,12.2,7C13.9,13.4,5.9,13.2,5.9,13.2L5.9,13.2z M6,9.7
		C6,9.7,8.8,10,8.8,8C8.8,5.8,6,6,6,6l0,0V9.7L6,9.7z"/>
	<path class="st0" d="M33.4,13.2v4.6H29V6h-1.4V1.1H28h1.4c4.1,0,12.2,0.3,12.2,7C41.4,13.4,33.5,13.2,33.4,13.2L33.4,13.2z
		 M33.5,9.7c0,0,2.9,0.2,2.9-1.7c0-2.2-2.9-2-2.9-2l0,0V9.7L33.5,9.7z"/>
	<path class="st0" d="M51.3,9.7c0,0-0.3-2.8-2.8-2.8C46.4,7,46,9.7,46,9.7H51.3z M53.4,16.6c-1.2,1.8-3.3,3.4-5.2,3.4
		c-3.6,0-6.4-3.8-6.4-8.4s2.9-8.6,6.4-8.4c4.7,0.2,6.2,3.8,6,9.6h-8.3c0,0,0.2,5.6,6.4,2L53.4,16.6z"/>
	<path class="st0" d="M75.8,9.7c0,0-0.3-2.8-2.8-2.8c-2.1,0-2.4,2.8-2.4,2.8H75.8z M78,16.6c-1.2,1.8-3.3,3.4-5.2,3.4
		c-3.6,0-6.4-3.8-6.4-8.4s2.9-8.6,6.4-8.4c4.7,0.2,6.2,3.8,6,9.6h-8.3c0,0,0.2,5.6,6.4,2L78,16.6z"/>
	<path class="st0" d="M89.1,17.1h-0.2v0.3h0.2c0.2,0,0.2,0,0.2-0.2C89.3,17.2,89.2,17.1,89.1,17.1 M89.3,18L89,17.6h-0.1V18h-0.2v-1
		h0.4c0.2,0,0.3,0.1,0.3,0.3c0,0.2-0.1,0.2-0.3,0.3l0.3,0.4C89.4,18,89.3,18,89.3,18z M89,16.7c-0.4,0-0.8,0.4-0.8,0.8
		s0.3,0.8,0.8,0.8c0.4,0,0.8-0.4,0.8-0.8C89.8,17,89.5,16.7,89,16.7 M89,18.4c-0.5,0-0.9-0.4-0.9-0.9s0.4-0.9,0.9-0.9
		s0.9,0.4,0.9,0.9S89.5,18.4,89,18.4"/>
</g>
</svg>
